<svg width="128" height="128" viewBox="0 0 128 128" fill="none" xmlns="http://www.w3.org/2000/svg">
  <rect width="128" height="128" rx="32" fill="#0F172A"/>
  <rect x="20" y="20" width="88" height="88" rx="24" fill="#2563EB" fill-opacity="0.18"/>
  <path d="M40 50C40 44.4772 44.4772 40 50 40H62C67.5228 40 72 44.4772 72 50V62C72 67.5228 67.5228 72 62 72H50C44.4772 72 40 67.5228 40 62V50Z" fill="#F8FAFC"/>
  <path d="M56 56C56 45.5066 64.5066 37 75 37H78C85.1797 37 91 42.8203 91 50V53C91 60.1797 85.1797 66 78 66H75C64.5066 66 56 57.4934 56 47V56Z" fill="#93C5FD"/>
  <path d="M53 82H88" stroke="#BFDBFE" stroke-width="8" stroke-linecap="round"/>
</svg>
